<?xml version="1.0" encoding="UTF-8" standalone="no"?>
<!-- Created with Inkscape (http://www.inkscape.org/) -->

<svg
   xmlns:dc="http://purl.org/dc/elements/1.1/"
   xmlns:cc="http://creativecommons.org/ns#"
   xmlns:rdf="http://www.w3.org/1999/02/22-rdf-syntax-ns#"
   xmlns:svg="http://www.w3.org/2000/svg"
   xmlns="http://www.w3.org/2000/svg"
   xmlns:sodipodi="http://sodipodi.sourceforge.net/DTD/sodipodi-0.dtd"
   xmlns:inkscape="http://www.inkscape.org/namespaces/inkscape"
   id="svg20328"
   version="1.1"
   inkscape:version="0.48.4 r9939"
   width="765"
   height="990"
   xml:space="preserve"
   sodipodi:docname="dotted-vector.ai"><metadata
     id="metadata20334"><rdf:RDF><cc:Work
         rdf:about=""><dc:format>image/svg+xml</dc:format><dc:type
           rdf:resource="http://purl.org/dc/dcmitype/StillImage" /><dc:title></dc:title></cc:Work></rdf:RDF></metadata><defs
     id="defs20332"><clipPath
       clipPathUnits="userSpaceOnUse"
       id="clipPath20342"><path
         d="M 0,792 612,792 612,0 0,0 0,792 z"
         id="path20344" /></clipPath><linearGradient
       x1="0"
       y1="0"
       x2="1"
       y2="0"
       gradientUnits="userSpaceOnUse"
       gradientTransform="matrix(702.00006,702.00006,702.00006,-702.00006,-44.999512,44.999023)"
       spreadMethod="pad"
       id="linearGradient20358"><stop
         style="stop-opacity:1;stop-color:#71cde1"
         offset="0"
         id="stop20360" /><stop
         style="stop-opacity:1;stop-color:#3d4b9c"
         offset="0.308989"
         id="stop20362" /><stop
         style="stop-opacity:1;stop-color:#393465"
         offset="0.623596"
         id="stop20364" /><stop
         style="stop-opacity:1;stop-color:#292929"
         offset="1"
         id="stop20366" /></linearGradient><clipPath
       clipPathUnits="userSpaceOnUse"
       id="clipPath20374"><path
         d="M 0.221191,792 612,792 612,0 0.221191,0 l 0,792 z"
         id="path20376" /></clipPath></defs><sodipodi:namedview
     pagecolor="#ffffff"
     bordercolor="#666666"
     borderopacity="1"
     objecttolerance="10"
     gridtolerance="10"
     guidetolerance="10"
     inkscape:pageopacity="0"
     inkscape:pageshadow="2"
     inkscape:window-width="1920"
     inkscape:window-height="1018"
     id="namedview20330"
     showgrid="false"
     inkscape:zoom="0.72562993"
     inkscape:cx="490.80508"
     inkscape:cy="513.87712"
     inkscape:window-x="-8"
     inkscape:window-y="-8"
     inkscape:window-maximized="1"
     inkscape:current-layer="g20336" /><g
     id="g20336"
     inkscape:groupmode="layer"
     inkscape:label="dotted-vector"
     transform="matrix(1.25,0,0,-1.25,0,990)"><g
       id="g20338"><g
         id="g20340"
         clip-path="url(#clipPath20342)"><g
           id="g20346"><g
             id="g20348"><g
               id="g20354"><g
                 id="g20356"><path
                   d="M 612,0 0,0 0,792 612,792 612,0 z"
                   style="fill:url(#linearGradient20358);stroke:none"
                   id="path20368" /></g></g></g></g><g
           id="g20370"><g
             id="g20372" /><g
             id="g20378"><g
               clip-path="url(#clipPath20374)"
               id="g20380"><path
                 d="m 446.306,391.91 c -4.378,-3.083 -9.599,-1.936 -11.644,2.534 -2.005,4.393 -0.346,10.625 3.706,13.954 4.055,3.312 9.208,2.264 11.542,-2.363 2.361,-4.71 0.761,-11.043 -3.604,-14.125 m -31.106,2.323 c -3.917,-3.529 -8.195,-3.33 -9.558,0.424 -1.33,3.686 0.453,9.739 4.003,13.528 3.548,3.784 7.802,3.662 9.503,-0.284 1.727,-4.015 -0.035,-10.14 -3.948,-13.668 m -7.017,17.618 c -3.45,-3.858 -7.243,-4.19 -8.498,-0.746 -1.23,3.393 0.275,9.479 3.377,13.608 3.101,4.127 6.914,4.51 8.487,0.851 1.596,-3.712 0.084,-9.85 -3.366,-13.713 m -18.028,45.252 c -2.198,-4.868 -4.74,-6.617 -5.729,-3.888 -0.974,2.69 -0.26,9.023 1.636,14.167 1.909,5.142 4.517,6.924 5.79,3.974 1.279,-2.993 0.498,-9.367 -1.697,-14.253 m 11.554,-29.004 c -3.013,-4.199 -6.365,-5.025 -7.513,-1.844 -1.133,3.13 0.095,9.282 2.774,13.75 2.683,4.465 6.067,5.332 7.533,1.938 1.481,-3.447 0.222,-9.645 -2.794,-13.844 m -5.991,15.044 c -2.591,-4.539 -5.527,-5.835 -6.596,-2.892 -1.039,2.895 -0.086,9.137 2.194,13.937 2.286,4.81 5.269,6.138 6.637,2.982 1.367,-3.21 0.356,-9.48 -2.235,-14.027 M 520.884,128.94 c -9.343,-2.769 -20.27,3.598 -23.926,13.67 -3.53,9.768 1.073,19.199 9.862,21.628 8.566,2.341 18.431,-2.997 22.499,-12.427 4.167,-9.699 0.611,-20.156 -8.435,-22.871 M 384.98,470.095 c -1.826,-5.205 -3.999,-7.369 -4.918,-4.832 -0.899,2.503 -0.437,8.955 1.1,14.418 1.543,5.478 3.796,7.685 4.984,4.928 1.204,-2.798 0.655,-9.289 -1.166,-14.514 m 88.837,-223.002 c -7.3,-2.119 -15.4,1.927 -17.89,8.77 -2.415,6.679 1.28,13.674 8.073,15.876 6.698,2.153 14.311,-1.388 17.226,-8.14 2.963,-6.908 -0.244,-14.406 -7.409,-16.506 m -42.656,107.074 c -4.928,-2.906 -10.286,-1.567 -11.913,2.935 -1.602,4.41 0.8,10.492 5.313,13.64 4.501,3.128 9.741,1.936 11.743,-2.717 2.041,-4.734 -0.241,-10.966 -5.143,-13.858 m 72.055,-180.87 c -8.647,-2.347 -18.54,3.253 -21.728,12.016 -3.085,8.535 1.243,16.872 9.344,19.063 7.927,2.126 16.996,-2.632 20.612,-11.015 3.688,-8.597 0.194,-17.782 -8.228,-20.064 M 440.293,331.25 c -5.475,-2.628 -11.439,-0.662 -13.233,4.297 -1.751,4.854 0.956,11.027 5.995,13.873 5.015,2.828 10.79,1.068 12.973,-3.998 2.221,-5.17 -0.304,-11.552 -5.735,-14.172 m 21.165,-53.13 c -6.665,-2.218 -13.996,1.108 -16.208,7.215 -2.16,5.971 1.202,12.575 7.383,14.935 6.116,2.323 13.079,-0.612 15.712,-6.725 2.678,-6.238 -0.322,-13.231 -6.887,-15.425 m -11.118,27.903 c -6.052,-2.393 -12.669,0.232 -14.657,5.721 -1.943,5.373 1.093,11.706 6.685,14.287 5.552,2.554 11.9,0.22 14.295,-5.336 2.436,-5.665 -0.337,-12.294 -6.323,-14.672 m 37.299,-93.633 c -7.961,-2.148 -16.915,2.654 -19.719,10.367 -2.726,7.526 1.297,15.091 8.733,17.211 7.308,2.075 15.627,-2.072 18.862,-9.579 3.296,-7.68 -0.081,-15.896 -7.876,-17.999 m 7.632,77.823 c -6.063,-2.326 -13.448,1.048 -16.324,7.328 -2.812,6.167 -0.334,12.967 5.4,15.367 5.672,2.364 12.684,-0.656 15.828,-6.897 3.183,-6.346 1.072,-13.496 -4.904,-15.798 M 510.33,258.94 c -6.475,-2.334 -14.465,1.595 -17.626,8.503 -3.091,6.777 -0.461,13.963 5.69,16.293 6.061,2.278 13.577,-1.201 16.983,-7.974 3.462,-6.9 1.309,-14.53 -5.047,-16.822 m 16.51,-34.288 c -6.863,-2.457 -15.484,1.99 -18.978,9.622 -3.413,7.485 -0.665,15.213 5.888,17.565 6.436,2.295 14.448,-1.597 18.162,-8.982 3.773,-7.507 1.629,-15.785 -5.072,-18.205 m -69.721,144.801 c -4.798,-2.814 -10.515,-1.131 -12.734,3.714 -2.17,4.761 -0.288,11.032 4.178,14.061 4.453,3.017 10.056,1.466 12.564,-3.51 2.528,-5.053 0.767,-11.456 -4.008,-14.265 m 11.688,-24.272 c -5.222,-2.59 -11.469,-0.346 -13.877,4.912 -2.358,5.168 -0.261,11.531 4.626,14.306 4.86,2.745 10.925,0.697 13.612,-4.65 2.729,-5.435 0.816,-11.992 -4.361,-14.568 m -93.17,148.374 c -1.119,-5.858 -2.638,-8.796 -3.438,-6.587 -0.79,2.184 -0.778,8.887 0.093,14.987 0.867,6.126 2.465,9.136 3.51,6.705 1.063,-2.459 0.963,-9.234 -0.165,-15.105 m 105.847,-174.7 c -5.647,-2.418 -12.454,0.383 -15.073,6.121 -2.577,5.636 -0.273,12.169 5.038,14.724 5.266,2.525 11.799,-0.012 14.702,-5.784 2.943,-5.863 0.914,-12.66 -4.667,-15.061 M 380.149,482.221 c -1.465,-5.53 -3.29,-8.098 -4.152,-5.733 -0.846,2.336 -0.606,8.906 0.584,14.694 1.199,5.801 3.119,8.424 4.228,5.833 1.122,-2.619 0.799,-9.242 -0.66,-14.794 M 612,8.706 c -1.146,5.358 -1.097,10.607 0,15.091 L 612,8.706 z M 587.566,98.53 c -7.716,-4.142 -18.412,1.641 -23.294,12.314 -4.748,10.394 -2.058,21.185 5.496,24.644 7.326,3.345 16.836,-1.47 21.747,-11.225 5.008,-9.988 3.501,-21.735 -3.949,-25.733 m -22.408,46.535 c -7.503,-3.309 -17.479,2.102 -21.823,11.593 -4.23,9.262 -1.424,18.709 5.846,21.588 7.08,2.792 16.104,-1.803 20.561,-10.656 4.541,-9.047 2.688,-19.316 -4.584,-22.525 M 612,46.02 c -7.782,-4.622 -18.73,1.393 -24.105,13.134 -5.373,11.768 -2.922,24.31 4.817,28.689 6.038,3.383 13.697,0.845 19.288,-5.947 l 0,-35.876 z m -65.626,339.817 c -4.492,-2.491 -10.865,0.246 -14.186,6.062 -3.281,5.777 -2.297,12.49 2.161,15.049 4.441,2.532 10.681,-0.125 13.998,-5.96 3.329,-5.875 2.478,-12.669 -1.973,-15.151 m -123.54,-10.756 c -4.413,-3.209 -9.21,-2.462 -10.697,1.648 -1.455,4.016 0.634,10.061 4.649,13.525 4.017,3.451 8.749,2.804 10.582,-1.465 1.877,-4.359 -0.144,-10.506 -4.534,-13.708 m 1.626,-108.479 c -7.252,-2.103 -14.326,1.092 -15.655,6.919 -1.285,5.677 3.132,12.005 9.747,14.323 6.55,2.286 13.295,-0.49 15.2,-6.374 1.947,-6.033 -2.137,-12.782 -9.292,-14.868 M 479.302,0 c -6.009,3.942 -10.668,10.288 -12.405,17.899 -3.288,14.521 5.184,27.779 18.199,30.68 12.547,2.808 25.686,-5.225 30.096,-18.857 C 518.845,18.406 515.379,6.307 506.881,0 l -27.579,0 z m -12.963,116.012 c -11.373,-2.091 -22.922,5.265 -25.313,15.735 -2.283,10.084 4.64,19.253 15.063,21.13 10.162,1.812 20.634,-4.281 23.846,-14.168 3.302,-10.228 -2.551,-20.672 -13.596,-22.697 m -33.477,120.369 c -8.129,-1.902 -16.11,2.186 -17.622,8.832 -1.465,6.461 3.503,13.16 10.932,15.219 7.337,2.026 14.865,-1.498 17.013,-8.12 2.196,-6.798 -2.32,-14.06 -10.323,-15.931 m 9.588,-34.473 c -9.104,-1.777 -18.11,3.282 -19.85,10.92 -1.677,7.419 3.882,14.672 12.213,16.532 8.192,1.842 16.596,-2.491 19.03,-9.999 2.494,-7.712 -2.473,-15.687 -11.393,-17.453 m 11.038,-39.699 c -10.17,-1.833 -20.363,4.341 -22.388,13.222 -1.942,8.598 4.269,16.633 13.589,18.42 9.133,1.741 18.512,-3.438 21.293,-12.013 2.848,-8.831 -2.556,-17.84 -12.494,-19.629 M 481.482,61.563 c -12.711,-2.686 -25.855,5.998 -28.71,18.49 -2.719,11.993 4.959,22.835 16.609,25.024 11.304,2.11 23.019,-4.928 26.763,-16.458 3.85,-11.953 -2.399,-24.418 -14.662,-27.056 M 368.099,403.812 c -1.968,-5.091 -3.598,-7.569 -3.684,-5.54 -0.073,1.991 1.183,7.911 2.839,13.22 1.653,5.303 3.319,7.81 3.709,5.593 0.379,-2.251 -0.906,-8.198 -2.864,-13.273 m -1.065,9.697 c -1.573,-5.375 -2.902,-8.208 -2.967,-6.348 -0.079,1.834 0.894,7.839 2.192,13.42 1.284,5.575 2.638,8.448 2.991,6.402 0.359,-2.077 -0.644,-8.112 -2.216,-13.474 M 541.106,78.168 c -10.032,-3.522 -22.103,3.634 -26.341,15.287 -4.075,11.278 0.751,22.228 10.228,25.159 9.196,2.815 19.924,-3.069 24.527,-13.758 4.725,-11.004 1.251,-23.236 -8.414,-26.688 m -175.05,344.278 c -1.225,-5.642 -2.249,-8.814 -2.312,-7.1 -0.063,1.694 0.64,7.791 1.592,13.633 0.951,5.834 1.999,9.043 2.33,7.152 0.327,-1.922 -0.403,-8.054 -1.61,-13.685 m -0.909,8.254 c -0.884,-5.898 -1.635,-9.375 -1.696,-7.791 -0.058,1.568 0.392,7.758 1.029,13.849 0.636,6.081 1.418,9.608 1.718,7.851 0.311,-1.784 -0.174,-8.018 -1.051,-13.909 m 4.113,-37.458 c -2.396,-4.789 -4.374,-6.875 -4.468,-4.658 -0.084,2.175 1.487,8.009 3.549,13.03 2.046,5.018 4.063,7.133 4.484,4.722 0.416,-2.453 -1.185,-8.316 -3.565,-13.094 m 0.808,68.918 c -0.967,-5.86 -2.06,-9.078 -2.498,-7.198 -0.424,1.858 -0.199,8.271 0.511,14.354 0.729,6.082 1.873,9.367 2.543,7.288 0.675,-2.096 0.412,-8.575 -0.556,-14.444 m 2.702,-9.707 c -1.307,-5.577 -2.707,-8.453 -3.169,-6.427 -0.448,1.995 0,8.303 1.033,14.108 1.042,5.808 2.492,8.731 3.216,6.51 0.724,-2.248 0.216,-8.603 -1.08,-14.191 m 2.906,-10.449 c -1.665,-5.283 -3.377,-7.792 -3.884,-5.605 -0.489,2.149 0.206,8.356 1.587,13.872 1.386,5.515 3.161,8.07 3.924,5.688 0.78,-2.423 0.044,-8.676 -1.627,-13.955 M 564.477,19.511 c -10.677,-4.815 -24.043,3.11 -28.987,16.744 -4.768,13.187 0.195,26.228 10.347,30.046 9.804,3.627 21.431,-2.72 26.696,-14.94 5.403,-12.578 2.181,-27.215 -8.056,-31.85 M 563.104,0 c 1.882,2.444 4.197,4.396 6.868,5.684 7.416,3.565 15.97,1.151 22.463,-5.684 L 563.104,0 z M 404.491,338.397 c -5.067,-2.992 -9.962,-2.035 -10.903,2.082 -0.904,4.026 2.084,9.889 6.666,13.154 4.562,3.248 9.358,2.443 10.752,-1.852 1.413,-4.379 -1.481,-10.398 -6.515,-13.384 m 12.54,-45.082 c -6.459,-2.364 -12.719,0.014 -13.899,5.166 -1.13,5.031 2.768,11.112 8.641,13.725 5.837,2.585 11.865,0.519 13.574,-4.75 1.734,-5.391 -1.929,-11.78 -8.316,-14.141 m -17.877,64.278 c -4.463,-3.329 -8.774,-2.989 -9.62,0.726 -0.827,3.63 1.77,9.463 5.782,13.066 4.007,3.58 8.257,3.353 9.519,-0.537 1.29,-3.985 -1.244,-9.931 -5.681,-13.255 m 11.26,-40.496 c -5.731,-2.674 -11.267,-1.036 -12.323,3.56 -1.011,4.483 2.419,10.423 7.62,13.353 5.174,2.91 10.56,1.494 12.097,-3.244 1.561,-4.847 -1.707,-11.01 -7.394,-13.669 m -20.496,73.705 c -3.388,-4.006 -6.68,-4.767 -7.378,-1.705 -0.681,3.005 1.186,8.889 4.191,13.157 3.003,4.257 6.303,5.076 7.359,1.81 1.072,-3.323 -0.797,-9.262 -4.172,-13.262 m -4.018,14.452 c -2.905,-4.34 -5.759,-5.583 -6.401,-2.784 -0.616,2.747 0.919,8.697 3.476,13.29 2.548,4.592 5.425,5.88 6.404,2.876 0.982,-3.057 -0.575,-9.055 -3.479,-13.382 m 8.414,-30.274 c -3.898,-3.673 -7.681,-3.901 -8.446,-0.536 -0.747,3.291 1.472,9.138 4.962,13.076 3.479,3.927 7.237,4.236 8.394,0.678 1.172,-3.631 -1.021,-9.558 -4.91,-13.218 m -15.501,55.746 c -2.057,-4.975 -4.125,-7.095 -4.662,-4.729 -0.526,2.327 0.433,8.438 2.182,13.653 1.747,5.219 3.853,7.375 4.69,4.809 0.838,-2.61 -0.162,-8.757 -2.21,-13.733 m 3.416,94.27 c -1.352,-5.869 -3.339,-8.518 -4.525,-5.926 -1.17,2.556 -1.298,9.601 -0.206,15.755 1.094,6.188 3.209,8.913 4.639,6.07 1.448,-2.879 1.454,-10.001 0.092,-15.899 M 492.995,423.667 c -4.365,-2.846 -10.218,-0.994 -13.074,4.134 -2.809,5.064 -1.708,11.644 2.48,14.69 4.186,3.039 10.004,1.224 12.99,-4.035 3.017,-5.327 1.954,-11.943 -2.396,-14.789 m 14.07,-24.998 c -4.562,-2.65 -10.723,-0.396 -13.727,4.999 -2.968,5.343 -1.782,11.921 2.622,14.731 4.393,2.793 10.459,0.608 13.587,-4.889 3.142,-5.545 2.053,-12.195 -2.482,-14.841 m -40.336,71.659 c -3.888,-3.403 -9.092,-2.433 -11.671,2.203 -2.552,4.591 -1.681,11.313 1.994,14.99 3.698,3.679 8.967,2.695 11.727,-2.168 2.78,-4.902 1.845,-11.613 -2.05,-15.025 m -12.27,21.797 c -3.622,-3.75 -8.492,-3.237 -10.952,1.18 -2.432,4.38 -1.714,11.242 1.681,15.291 3.416,4.064 8.395,3.528 11.057,-1.15 2.674,-4.715 1.848,-11.554 -1.786,-15.321 m 67.362,-119.666 c -4.728,-2.525 -11.183,0.104 -14.354,5.791 -3.125,5.627 -1.889,12.266 2.711,14.894 4.571,2.601 10.864,0.097 14.122,-5.632 3.278,-5.787 2.202,-12.548 -2.479,-15.053 m -42.255,75.069 c -4.142,-3.101 -9.676,-1.678 -12.384,3.193 -2.68,4.822 -1.678,11.444 2.26,14.791 3.951,3.341 9.502,1.924 12.376,-3.137 2.893,-5.105 1.882,-11.74 -2.252,-14.847 m 57.753,-102.602 c -4.856,-2.473 -11.59,0.486 -14.934,6.491 -3.302,5.95 -2.048,12.718 2.707,15.231 4.716,2.479 11.207,-0.294 14.611,-6.283 3.423,-6.04 2.409,-12.991 -2.384,-15.439 M 612,190.287 c -0.239,0.381 -0.471,0.773 -0.695,1.175 -4.389,7.913 -3.927,16.847 0.695,20.39 l 0,-21.565 z m -4.082,29.219 c -4.808,-3.347 -12.381,0.323 -16.611,7.926 -4.171,7.508 -3.357,15.823 1.542,18.841 4.792,2.935 11.775,-0.336 15.86,-7.525 4.118,-7.258 3.891,-15.976 -0.791,-19.242 m -19.085,33.903 c -4.924,-2.928 -12.334,0.672 -16.312,7.817 -3.927,7.074 -2.917,14.822 2.042,17.535 4.861,2.654 11.783,-0.61 15.681,-7.465 3.922,-6.927 3.401,-15.022 -1.411,-17.887 M 442.711,513.004 c -3.342,-4.128 -7.873,-4.097 -10.22,0.117 -2.316,4.177 -1.764,11.205 1.339,15.66 3.12,4.479 7.797,4.418 10.356,-0.081 2.573,-4.54 1.875,-11.542 -1.475,-15.696 m 110.9,-197.025 c -4.935,-2.511 -11.928,0.73 -15.465,7.084 -3.492,6.288 -2.27,13.293 2.606,15.767 4.812,2.442 11.485,-0.568 15.043,-6.823 3.576,-6.316 2.671,-13.544 -2.184,-16.028 m 17.147,-30.46 c -4.963,-2.66 -12.179,0.799 -15.927,7.533 -3.701,6.66 -2.556,13.979 2.391,16.52 4.863,2.491 11.682,-0.679 15.401,-7.225 3.748,-6.614 3,-14.21 -1.865,-16.828 m -134.484,127.23 c -3.968,-3.386 -8.709,-2.769 -10.604,1.365 -1.851,4.074 -0.427,10.329 3.223,13.969 3.654,3.644 8.383,3.089 10.557,-1.235 2.207,-4.393 0.784,-10.707 -3.176,-14.099 M 612,268.922 c -4.141,-2.272 -10.273,0.903 -13.939,7.324 -3.838,6.759 -3.351,14.398 0.918,17.242 3.796,2.529 9.272,0.387 13.021,-4.878 l 0,-19.688 z m -180.555,264.09 c -3.038,-4.543 -7.229,-5 -9.469,-0.977 -2.215,3.995 -1.842,11.218 0.955,16.105 2.813,4.919 7.179,5.352 9.644,1.017 2.481,-4.373 1.925,-11.571 -1.13,-16.145 M 562.139,358.158 c -4.482,-2.493 -10.985,0.448 -14.426,6.492 -3.417,6 -2.482,12.816 2.009,15.31 4.451,2.465 10.748,-0.349 14.164,-6.351 3.419,-6.034 2.682,-12.976 -1.747,-15.451 m 33.145,-58.18 c -4.305,-2.79 -10.945,0.38 -14.674,6.916 -3.692,6.49 -3,13.754 1.397,16.39 4.339,2.578 10.643,-0.368 14.244,-6.703 3.613,-6.373 3.256,-13.857 -0.967,-16.603 M 400.32,588.316 c -2.093,-5.918 -5.25,-7.868 -7.216,-4.343 -1.945,3.507 -2.162,11.454 -0.342,17.756 1.846,6.36 5.242,8.354 7.451,4.466 2.22,-3.917 2.198,-11.907 0.107,-17.879 m 20.326,-36.119 c -2.737,-4.977 -6.578,-5.928 -8.722,-2.079 -2.114,3.812 -1.932,11.26 0.55,16.601 2.486,5.387 6.548,6.323 8.918,2.15 2.389,-4.212 1.995,-11.651 -0.746,-16.672 m -10.367,18.423 c -2.424,-5.434 -5.915,-6.886 -7.967,-3.211 -2.029,3.66 -2.029,11.337 0.113,17.16 2.173,5.862 5.894,7.325 8.187,3.294 2.3,-4.058 2.087,-11.757 -0.333,-17.243 M 578.435,329.552 c -4.422,-2.589 -11.016,0.508 -14.599,6.785 -3.547,6.238 -2.715,13.245 1.76,15.757 4.421,2.477 10.748,-0.445 14.25,-6.609 3.51,-6.199 2.943,-13.377 -1.411,-15.933 M 612,121.249 c -3.412,1.87 -6.684,5.271 -9.035,9.798 -4.912,9.452 -3.74,19.879 2.17,23.719 2.06,1.332 4.438,1.69 6.865,1.193 l 0,-34.71 z m -32.354,81.186 c -5.926,-3.104 -14.408,1.211 -18.612,9.286 -4.124,7.942 -2.476,16.389 3.388,19.189 5.725,2.719 13.523,-1.057 17.713,-8.71 4.239,-7.762 3.281,-16.748 -2.489,-19.765 m -19.239,35.98 c -5.844,-2.722 -13.927,1.324 -17.797,8.757 -3.802,7.321 -2.046,15.1 3.675,17.654 5.616,2.487 13.14,-1.11 17.058,-8.261 3.96,-7.254 2.764,-15.474 -2.936,-18.15 m 40.034,-74.871 c -5.934,-3.67 -14.773,0.793 -19.365,9.61 -4.488,8.657 -3.033,17.967 2.903,21.175 5.773,3.115 13.798,-0.748 18.291,-8.951 4.558,-8.351 3.916,-18.257 -1.829,-21.834 M 410.1,467.117 c -2.787,-4.411 -6.229,-5.287 -7.762,-1.948 -1.502,3.295 -0.758,9.778 1.731,14.467 2.495,4.709 6.027,5.618 7.827,2.044 1.818,-3.629 0.993,-10.141 -1.796,-14.563 m -21.522,44.699 c -1.698,-5.504 -4.021,-7.732 -5.28,-4.983 -1.239,2.72 -1.158,9.603 0.266,15.395 1.436,5.814 3.876,8.105 5.392,5.1 1.524,-3.038 1.319,-9.984 -0.378,-15.512 m 38.36,-79.679 c -3.564,-3.711 -7.843,-3.61 -9.609,0.227 -1.726,3.786 -0.522,10.088 2.726,14.069 3.26,3.984 7.577,3.929 9.616,-0.129 2.062,-4.108 0.83,-10.444 -2.733,-14.167 m -8.702,18.073 c -3.173,-4.049 -7.023,-4.446 -8.664,-0.869 -1.606,3.525 -0.639,9.905 2.228,14.238 2.875,4.345 6.791,4.773 8.702,0.969 1.94,-3.856 0.903,-10.267 -2.266,-14.338 m -15.768,32.749 c -2.411,-4.769 -5.459,-6.117 -6.893,-2.998 -1.406,3.085 -0.887,9.688 1.238,14.746 2.133,5.077 5.287,6.455 6.982,3.087 1.718,-3.412 1.091,-10.044 -1.327,-14.835 M 370.53,381.685 c -2.851,-4.484 -5.223,-6.133 -5.322,-3.702 -0.091,2.383 1.826,8.141 4.318,12.865 2.468,4.715 4.868,6.405 5.321,3.776 0.467,-2.677 -1.481,-8.473 -4.317,-12.939 m 24.782,116.142 c -2.052,-5.135 -4.728,-6.934 -6.069,-4.005 -1.322,2.889 -1.023,9.633 0.747,15.053 1.778,5.453 4.573,7.285 6.172,4.112 1.611,-3.22 1.196,-10.001 -0.85,-15.16 m 40.425,-26.251 c -3.371,-3.911 -7.743,-3.859 -9.819,0.132 -2.047,3.943 -1.245,10.561 1.859,14.759 3.118,4.21 7.568,4.169 9.886,-0.061 2.337,-4.281 1.457,-10.909 -1.926,-14.83 m -19.625,36.707 c -2.693,-4.662 -6.299,-5.587 -8.146,-2.031 -1.824,3.515 -1.422,10.416 0.999,15.394 2.433,5.003 6.178,5.937 8.275,2.104 2.119,-3.869 1.574,-10.782 -1.128,-15.467 m 9.547,-17.853 c -3.037,-4.277 -7.019,-4.717 -8.976,-0.951 -1.931,3.717 -1.329,10.465 1.441,15.048 2.772,4.601 6.87,5.044 9.071,1.022 2.225,-4.07 1.502,-10.821 -1.536,-15.119 m -18.596,34.781 c -2.353,-5.063 -5.593,-6.462 -7.342,-3.097 -1.726,3.325 -1.526,10.395 0.555,15.786 2.094,5.416 5.486,6.837 7.484,3.189 2.014,-3.688 1.657,-10.781 -0.697,-15.878 m -16.771,31.364 c -1.671,-5.896 -4.201,-8.212 -5.782,-5.195 -1.552,2.998 -1.766,10.454 -0.363,16.685 1.415,6.266 4.122,8.66 5.949,5.328 1.837,-3.356 1.873,-10.886 0.196,-16.818 m 8.173,-15.287 c -2.017,-5.473 -4.891,-7.336 -6.548,-4.156 -1.634,3.16 -1.648,10.418 0.095,16.219 1.759,5.845 4.804,7.75 6.713,4.266 1.915,-3.515 1.757,-10.817 -0.26,-16.329 M 525.954,302.852 c -5.49,-2.425 -12.749,0.916 -16.061,7.271 -3.25,6.269 -1.489,13.197 3.809,15.642 5.234,2.403 12.149,-0.642 15.587,-6.927 3.482,-6.366 2.066,-13.592 -3.335,-15.986 m -29.972,56.056 c -4.973,-2.554 -11.388,-0.094 -14.254,5.413 -2.816,5.428 -1.209,11.948 3.53,14.648 4.715,2.672 10.946,0.371 13.992,-5.194 3.08,-5.644 1.657,-12.324 -3.268,-14.867 m 14.482,-27.083 c -5.244,-2.45 -12.083,0.462 -15.157,6.37 -3.025,5.828 -1.323,12.507 3.708,15.037 4.988,2.504 11.561,-0.18 14.801,-6.095 3.271,-5.987 1.83,-12.89 -3.352,-15.312 m 32.097,-60.029 c -5.69,-2.514 -13.373,1.209 -16.948,8.076 -3.505,6.761 -1.721,14.051 3.807,16.496 5.447,2.393 12.677,-0.959 16.345,-7.655 3.708,-6.794 2.375,-14.461 -3.204,-16.917 m -96.165,179.849 c -3.71,-3.566 -8.476,-3.032 -10.678,1.208 -2.173,4.188 -1.187,10.702 2.26,14.535 3.456,3.841 8.263,3.323 10.703,-1.138 2.465,-4.502 1.43,-11.039 -2.285,-14.605 m 36.017,-67.362 c -4.68,-2.732 -10.666,-0.741 -13.347,4.399 -2.631,5.073 -1.154,11.513 3.275,14.435 4.422,2.9 10.304,1.016 13.183,-4.241 2.909,-5.322 1.539,-11.867 -3.111,-14.593 m -24.72,46.238 c -4.047,-3.246 -9.214,-2.216 -11.563,2.291 -2.31,4.451 -1.143,10.898 2.64,14.396 3.789,3.491 8.95,2.505 11.524,-2.194 2.602,-4.759 1.434,-11.244 -2.601,-14.493 m 11.982,-22.413 c -4.369,-2.964 -9.942,-1.45 -12.451,3.363 -2.462,4.74 -1.126,11.154 2.981,14.349 4.111,3.173 9.635,1.733 12.35,-3.227 2.754,-5.033 1.468,-11.519 -2.88,-14.485 m 75.353,-221.232 c -7.21,-2.772 -16.503,2.193 -20.382,10.673 -3.788,8.301 -0.979,16.767 5.958,19.29 6.777,2.455 15.303,-1.824 19.355,-9.889 4.131,-8.221 2.088,-17.371 -4.931,-20.074 M 371.922,368.997 c -3.359,-4.155 -6.148,-5.342 -6.258,-2.662 -0.09,2.62 2.198,8.311 5.155,12.724 2.945,4.394 5.739,5.631 6.242,2.756 0.503,-2.938 -1.797,-8.682 -5.139,-12.818 m -82.159,-98.854 c -5.709,-3.4 -8.175,-4.33 -5.555,-2.11 2.548,2.156 8.68,6.932 13.743,10.696 5.029,3.74 7.572,4.772 5.661,2.256 -1.97,-2.573 -8.179,-7.458 -13.849,-10.842 m -11.801,-12.372 c -6.653,-2.893 -9.545,-3.118 -6.529,-0.558 2.927,2.472 10.034,7.117 15.933,10.42 5.865,3.279 8.858,3.67 6.676,0.786 -2.26,-2.958 -9.468,-7.77 -16.08,-10.648 m 39.123,41.012 c -3.564,-4.627 -4.982,-7.13 -3.178,-5.601 1.763,1.495 5.722,6.659 8.848,11.549 3.108,4.848 4.549,7.375 3.22,5.626 -1.361,-1.794 -5.348,-6.977 -8.89,-11.574 M 205.914,182.251 c -12.635,-0.029 -17.82,4.374 -11.79,9.495 5.795,4.886 19.289,9.236 30.344,9.958 10.998,0.731 16.531,-2.938 12.292,-8.529 -4.44,-5.811 -18.283,-10.87 -30.846,-10.924 m -64.811,-67.933 c -18.373,2.203 -25.146,11.222 -15.528,19.384 9.098,7.697 28.947,12.397 44.695,11.184 15.65,-1.232 23.132,-8.627 16.569,-17.284 -6.958,-9.109 -27.495,-15.443 -45.736,-13.284 m 36.212,37.958 c -15.123,0.988 -21.058,7.386 -13.553,13.761 7.169,6.053 23.403,10.482 36.52,10.314 13.05,-0.172 19.495,-5.496 14.268,-12.351 -5.474,-7.187 -22.202,-12.688 -37.235,-11.724 M 93.751,64.681 C 70.975,68.325 63.36,80.993 76.083,91.789 c 11.948,10.087 36.741,15.447 55.938,13.012 19.063,-2.474 27.785,-12.654 19.276,-23.89 C 142.201,69.01 116.326,61.147 93.751,64.681 m 154.444,161.89 c -9.076,-1.656 -12.982,-0.033 -8.842,3.48 4,3.376 13.662,7.79 21.68,9.977 7.978,2.173 12.069,0.908 9.114,-3.002 -3.081,-4.027 -12.926,-8.793 -21.952,-10.455 m -19.131,-20.052 c -10.668,-0.912 -15.18,1.956 -10.222,6.161 4.777,4.022 16.14,8.376 25.528,9.885 9.343,1.497 14.107,-0.85 10.591,-5.486 -3.669,-4.795 -15.286,-9.65 -25.897,-10.56 M 18.113,0 C -1.696,7.353 -5.719,22.48 9.378,35.305 25.749,49.146 57.695,55.872 81.623,51.971 105.337,48.061 115.544,33.994 104.038,18.839 97.88,10.786 86.456,4.077 72.991,0 L 18.113,0 z m 246.155,243.42 c -7.76,-2.318 -11.131,-1.704 -7.618,1.272 3.403,2.877 11.666,7.397 18.538,10.175 6.833,2.765 10.357,2.385 7.818,-0.946 -2.615,-3.442 -11.027,-8.192 -18.738,-10.501 m 193.399,502.808 c -4.877,-6.427 -11.137,-6.617 -14.458,-0.282 5.502,8.49 11.422,16.884 17.776,25.144 3.244,-7.342 1.622,-18.284 -3.318,-24.862 m -23.601,-35.432 c -3.807,-6.512 -9.047,-7.476 -12.077,-2.135 4.223,8.456 8.788,16.861 13.722,25.18 3.069,-6.242 2.222,-16.419 -1.645,-23.045 M 493.688,792 c -1.161,-4.223 -3.245,-8.138 -6.036,-10.996 -6.147,-6.237 -13.518,-5.409 -17.014,2.069 2.521,2.999 5.107,5.976 7.758,8.927 l 15.292,0 z M 415.702,675.286 c -2.951,-6.484 -7.264,-8.072 -9.927,-3.56 3.208,8.325 6.675,16.646 10.467,24.911 2.784,-5.318 2.459,-14.769 -0.54,-21.351 m -24.963,-69.954 c -1.744,-6.33 -4.51,-8.79 -6.393,-5.582 1.783,7.994 3.745,15.997 5.897,24.002 2.074,-3.849 2.231,-12.022 0.496,-18.42 m 10.815,34.739 c -2.269,-6.426 -5.76,-8.494 -8.039,-4.692 2.399,8.17 5.022,16.337 7.895,24.484 2.445,-4.512 2.434,-13.29 0.144,-19.792 m -19.043,-68.937 c -1.328,-6.243 -3.487,-9.021 -4.982,-6.307 1.325,7.825 2.785,15.667 4.379,23.525 1.699,-3.276 1.916,-10.929 0.603,-17.218 m -6.273,-33.692 c -1.014,-6.156 -2.647,-9.204 -3.764,-6.917 0.982,7.691 2.061,15.398 3.25,23.117 1.326,-2.804 1.527,-10.004 0.514,-16.2 m -8.684,-66.236 c -0.643,-6.066 -1.454,-9.586 -1.86,-7.967 0.6,7.529 1.251,15.057 1.937,22.595 0.613,-2.045 0.566,-8.55 -0.077,-14.628 m 3.848,32.977 c -0.791,-6.1 -1.981,-9.392 -2.733,-7.461 0.754,7.586 1.56,15.189 2.455,22.793 0.965,-2.395 1.065,-9.209 0.278,-15.332 m -7.094,-65.829 c -0.582,-6.068 -1.064,-9.814 -1.128,-8.478 0.549,7.515 1.096,15.03 1.664,22.544 0.277,-1.75 0.02,-7.996 -0.536,-14.066 M 353.96,346.406 c -3.381,-4.297 -5.692,-5.912 -5.177,-3.616 0.509,2.243 3.298,7.757 6.259,12.312 2.942,4.537 5.257,6.202 5.17,3.697 -0.09,-2.554 -2.894,-8.105 -6.252,-12.393 m -1.519,-12.166 c -3.963,-3.952 -6.702,-5.068 -6.133,-2.505 0.561,2.497 3.842,7.938 7.338,12.169 3.479,4.212 6.22,5.393 6.118,2.621 -0.11,-2.832 -3.381,-8.34 -7.323,-12.285 M 341.36,245.403 c -8.323,-1.867 -14.201,0.756 -13.118,5.68 1.077,4.747 7.976,10.282 15.389,12.523 7.36,2.215 13.114,0.013 12.932,-5.107 -0.199,-5.272 -6.958,-11.235 -15.203,-13.096 m -3.321,-26.624 c -9.651,-1.387 -16.488,2.386 -15.204,8.159 1.253,5.569 9.271,11.325 17.855,13.097 8.507,1.756 15.137,-1.434 14.932,-7.374 -0.235,-6.14 -8.037,-12.493 -17.583,-13.882 m 6.172,49.454 c -7.193,-2.331 -12.27,-0.679 -11.33,3.559 0.931,4.111 6.882,9.522 13.295,12.204 6.369,2.665 11.347,1.321 11.202,-3.145 -0.185,-4.578 -6.037,-10.293 -13.167,-12.618 m 6.533,52.413 c -4.621,-3.584 -7.844,-4.133 -7.201,-1.259 0.625,2.793 4.449,8.184 8.548,12.062 4.079,3.861 7.286,4.517 7.176,1.429 -0.111,-3.173 -3.927,-8.662 -8.523,-12.232 m -4.068,-32.619 c -6.212,-2.768 -10.597,-1.952 -9.77,1.736 0.814,3.578 5.951,8.948 11.49,12.052 5.505,3.087 9.826,2.486 9.69,-1.43 -0.155,-4.017 -5.235,-9.595 -11.41,-12.358 m 2.163,17.327 c -5.373,-3.187 -9.14,-3.104 -8.411,0.135 0.711,3.159 5.156,8.522 9.926,12.028 4.749,3.483 8.474,3.546 8.356,0.073 -0.145,-3.547 -4.54,-9.057 -9.871,-12.236 m 30.364,-2.652 c -5.979,-2.725 -10.987,-1.47 -11.157,2.701 -0.158,4.062 4.089,9.73 9.46,12.746 5.335,2.997 10.224,1.967 10.983,-2.384 0.766,-4.463 -3.356,-10.359 -9.286,-13.063 m 2.411,-21.974 c -6.839,-2.348 -12.583,-0.29 -12.776,4.448 -0.179,4.61 4.708,10.376 10.859,13.028 6.104,2.618 11.675,0.882 12.527,-4.021 0.855,-5.03 -3.838,-11.122 -10.61,-13.455 m -8.152,74.259 c -3.915,-3.811 -7.175,-4.478 -7.296,-1.51 -0.104,2.895 2.603,8.536 6.072,12.626 3.46,4.064 6.703,4.806 7.261,1.639 0.552,-3.235 -2.145,-8.955 -6.037,-12.755 m 10.898,-99.292 c -7.813,-1.99 -14.393,0.983 -14.622,6.414 -0.198,5.272 5.397,11.242 12.437,13.52 6.97,2.243 13.304,-0.285 14.268,-5.843 0.981,-5.713 -4.357,-12.121 -12.083,-14.091 m -9.194,83.763 c -4.532,-3.454 -8.311,-3.553 -8.445,-0.246 -0.118,3.218 3.05,8.837 7.091,12.573 4.027,3.719 7.76,3.928 8.374,0.431 0.624,-3.588 -2.517,-9.317 -7.02,-12.758 m 1.901,-17.324 c -5.214,-3.089 -9.568,-2.552 -9.72,1.149 -0.14,3.61 3.538,9.236 8.211,12.615 4.641,3.368 8.936,2.978 9.608,-0.919 0.688,-3.985 -2.918,-9.767 -8.099,-12.845 m 10.459,-95.217 c -8.936,-1.661 -16.493,2.354 -16.752,8.649 -0.229,6.09 6.188,12.37 14.23,14.294 7.943,1.886 15.141,-1.523 16.252,-7.879 1.123,-6.551 -4.93,-13.431 -13.73,-15.064 M 380.783,0 c -0.595,2.011 -0.954,4.114 -1.044,6.283 -0.578,15.559 12.537,28.442 28.704,30.129 15.634,1.589 29.791,-8.224 32.377,-23.123 C 441.602,8.758 441.204,4.218 439.815,0 l -59.032,0 z m -46.659,187.338 c -11.243,-0.927 -19.19,4.222 -17.672,11.1 1.498,6.602 10.838,12.729 20.804,14.033 9.85,1.288 17.504,-3.039 17.265,-10.023 -0.291,-7.223 -9.313,-14.19 -20.397,-15.11 M 406.919,50.269 c -15.649,-1.548 -29.217,8.699 -29.748,21.711 -0.469,12.407 10.793,22.706 24.735,23.958 13.551,1.213 25.804,-6.978 27.928,-19.151 2.186,-12.699 -7.755,-25.051 -22.915,-26.518 m -6.255,56.964 c -13.514,-1.21 -25.117,7.03 -25.561,17.613 -0.373,10.129 9.35,18.751 21.44,19.934 11.809,1.156 22.493,-5.601 24.251,-15.735 1.805,-10.539 -6.977,-20.628 -20.13,-21.812 m -9.473,86.253 c -10.221,-1.379 -18.902,3.825 -19.209,11.193 -0.261,7.119 7.088,13.889 16.282,15.485 9.058,1.555 17.253,-2.827 18.526,-10.175 1.301,-7.57 -5.56,-15.146 -15.599,-16.503 m 4.318,-39.331 c -11.734,-1.18 -21.754,5.408 -22.104,14.157 -0.324,8.421 8.127,15.924 18.654,17.263 10.335,1.294 19.674,-4.197 21.164,-12.765 1.532,-8.872 -6.242,-17.471 -17.714,-18.655 m -139.39,-5.197 c -14.364,0.261 -22.292,7.043 -17.774,14.579 4.341,7.179 17.958,12.884 30.488,13.199 12.394,0.322 20.292,-5.292 17.733,-13.055 -2.697,-8.086 -16.261,-14.965 -30.447,-14.723 m 15.848,34.64 c -12.082,-0.46 -18.858,4.425 -15.184,10.55 3.549,5.863 14.979,11.169 25.591,12.183 10.521,0.994 17.283,-3.09 15.17,-9.495 -2.215,-6.643 -13.619,-12.758 -25.577,-13.238 m -35.6,-77.808 c -17.282,1.023 -26.628,10.228 -20.92,19.731 5.441,8.994 21.875,15.393 36.802,14.972 14.735,-0.391 24.01,-7.917 20.843,-17.525 -3.349,-10.079 -19.71,-18.143 -36.725,-17.178 m 68.647,150.022 c -7.501,-2.331 -11.778,-1.151 -9.588,2.5 2.135,3.53 9.226,8.517 15.88,11.252 6.614,2.708 10.907,1.819 9.609,-2.121 -1.347,-4.048 -8.447,-9.327 -15.901,-11.631 m -9.199,-20.103 c -8.751,-1.762 -13.738,0.431 -11.17,4.702 2.492,4.123 10.76,9.141 18.512,11.345 7.698,2.192 12.694,0.404 11.187,-4.161 -1.574,-4.711 -9.84,-10.134 -18.529,-11.886 m -10.85,-23.716 c -10.254,-1.139 -16.064,2.262 -13.014,7.342 2.944,4.881 12.637,9.985 21.685,11.621 8.984,1.618 14.786,-1.211 13.023,-6.585 -1.853,-5.56 -11.532,-11.231 -21.694,-12.378 m 27.943,61.072 c -6.44,-2.835 -10.102,-2.514 -8.209,0.644 1.85,3.05 7.95,8.071 13.667,11.276 5.682,3.177 9.357,3.051 8.233,-0.371 -1.171,-3.517 -7.291,-8.734 -13.691,-11.549 m 28.75,51.479 c -1.678,-5.783 -2.096,-9.627 -0.891,-8.619 1.171,1.002 3.29,6.624 4.676,12.588 1.399,5.912 1.782,9.759 0.885,8.582 -0.907,-1.198 -2.991,-6.821 -4.67,-12.551 M 211.056,50.476 c -21.148,1.785 -32.203,14.225 -24.8,26.573 7.003,11.597 27.195,19.216 45.211,18.033 17.735,-1.139 28.687,-11.083 24.689,-23.283 C 251.854,58.938 231.8,48.822 211.056,50.476 M 144.514,0 c -0.448,4.206 0.565,8.669 3.228,13.105 9.372,15.527 34.788,25.261 56.921,23.407 C 226.378,34.648 239.492,21.514 234.216,5.52 233.589,3.633 232.72,1.787 231.636,0 l -87.122,0 z m 184.905,149.621 c -13.17,-0.492 -22.458,6.338 -20.617,14.664 1.795,7.962 12.76,14.693 24.379,15.53 11.462,0.807 20.319,-4.839 20.035,-13.16 -0.338,-8.639 -10.854,-16.539 -23.797,-17.034 M 272.337,0 c 0.067,1.287 0.244,2.592 0.538,3.908 3.615,16.002 22.501,27.807 41.847,27.855 C 333.55,31.809 347.855,20.182 347.304,4.38 347.248,2.905 347.06,1.442 346.748,0 l -74.411,0 z m 51.336,103.565 c -15.552,-0.164 -26.489,8.74 -24.208,19.042 2.214,9.788 15.183,17.477 28.814,17.906 13.398,0.4 23.727,-6.86 23.367,-16.933 -0.387,-10.532 -12.738,-19.87 -27.973,-20.015 M 316.5,46.03 c -18.587,-0.009 -31.575,11.545 -28.681,24.579 2.79,12.322 18.308,21.582 34.448,21.693 15.799,0.092 27.893,-9.11 27.455,-21.559 C 349.227,57.666 334.605,46.091 316.5,46.03 m 3.259,242.003 c -5.536,-3.295 -8.655,-3.702 -7.006,-0.951 1.609,2.676 6.877,7.753 11.781,11.387 4.878,3.608 8.008,4.148 7.028,1.134 -1.035,-3.08 -6.306,-8.29 -11.803,-11.57 m 6.001,13.112 c -4.751,-3.717 -7.4,-4.746 -5.936,-2.322 1.412,2.352 5.95,7.504 10.147,11.528 4.171,4.006 6.836,5.119 5.962,2.461 -0.907,-2.727 -5.455,-7.969 -10.173,-11.667 m 10.011,21.881 c -3.447,-4.461 -5.29,-6.515 -4.14,-4.594 1.121,1.876 4.482,7.191 7.494,11.916 2.997,4.689 4.847,6.781 4.15,4.653 -0.715,-2.173 -4.078,-7.536 -7.504,-11.975 m 46.439,95.488 c -2.468,-4.66 -4.914,-6.355 -5.496,-3.789 -0.572,2.523 0.671,8.548 2.807,13.457 2.136,4.909 4.621,6.647 5.514,3.874 0.912,-2.818 -0.367,-8.88 -2.825,-13.542 M 612,714.924 c -1.648,-1.67 -3.621,-2.976 -5.828,-3.77 -7.699,-2.787 -15.747,1.599 -18.256,10.163 -2.521,8.683 1.788,18.696 9.94,21.928 5.127,2.028 10.389,0.825 14.144,-2.557 l 0,-25.764 z m 0,-73.113 c -1,1.381 -1.799,2.993 -2.326,4.794 -1.419,4.897 -0.414,10.062 2.326,13.749 l 0,-18.543 z m 0,30.319 c -5.705,0.086 -10.965,4.162 -12.86,10.649 -2.364,8.15 1.655,17.207 9.229,19.897 1.212,0.426 2.431,0.659 3.631,0.718 l 0,-31.264 z m -16.505,80.23 c -8.286,-3.359 -16.873,0.947 -19.554,10.085 -2.689,9.296 1.877,20.446 10.607,24.448 8.907,4.053 18.238,-1.145 20.482,-11.083 2.19,-9.743 -3.131,-19.991 -11.535,-23.45 M 591.84,412.169 c -4.049,-2.438 -9.945,0.375 -13.136,6.269 -3.177,5.896 -2.333,12.633 1.869,15.06 4.181,2.409 10.003,-0.419 13.033,-6.295 3.021,-5.877 2.25,-12.6 -1.766,-15.034 m 14.355,-27.17 c -3.817,-2.539 -9.558,0.244 -12.762,6.169 -3.2,5.93 -2.506,12.694 1.495,15.155 3.973,2.438 9.585,-0.309 12.603,-6.165 3.007,-5.842 2.438,-12.637 -1.336,-15.159 m -43.06,81.502 c -4.389,-2.484 -10.486,0.196 -13.646,6.036 -3.136,5.823 -2.09,12.689 2.384,15.284 4.478,2.586 10.614,-0.177 13.671,-6.11 3.054,-5.941 1.97,-12.725 -2.409,-15.21 m 14.354,-27.168 c -4.243,-2.419 -10.256,0.358 -13.424,6.22 -3.165,5.869 -2.201,12.64 2.153,15.111 4.352,2.46 10.35,-0.369 13.399,-6.285 3.033,-5.904 2.092,-12.623 -2.128,-15.046 m -28.702,54.326 c -4.493,-2.626 -10.641,-0.102 -13.781,5.697 -3.124,5.8 -2.028,12.824 2.519,15.623 4.564,2.804 10.804,0.159 13.879,-5.812 3.071,-5.967 1.881,-12.872 -2.617,-15.508 m -14.349,27.155 c -4.558,-2.842 -10.716,-0.547 -13.833,5.219 -3.113,5.771 -2.002,13.016 2.575,16.093 4.603,3.102 10.92,0.644 14.021,-5.361 3.078,-5.994 1.811,-13.083 -2.763,-15.951 M 612,359.024 c -1.402,1.175 -2.707,2.775 -3.763,4.726 -3.216,5.961 -2.711,12.833 1.043,15.408 0.839,0.573 1.76,0.884 2.72,0.955 l 0,-21.089 z M 491.409,602.257 c -4.504,-3.973 -10.494,-2.715 -13.566,2.962 -3.06,5.678 -2.112,13.948 2.313,18.343 4.477,4.451 10.814,2.98 13.959,-3.119 3.131,-6.093 1.842,-14.154 -2.706,-18.186 m 28.69,-54.298 c -4.584,-3.138 -10.726,-1.129 -13.828,4.614 -3.095,5.737 -2.005,13.27 2.564,16.707 4.605,3.47 10.965,1.268 14.077,-4.765 3.099,-6.031 1.793,-13.383 -2.813,-16.556 m -14.343,27.152 c -4.568,-3.521 -10.651,-1.852 -13.737,3.857 -3.079,5.705 -2.045,13.577 2.475,17.454 4.568,3.919 10.931,2.05 14.056,-4.017 3.118,-6.059 1.804,-13.736 -2.794,-17.294 m -28.684,54.285 c -4.403,-4.513 -10.277,-3.71 -13.333,1.937 -3.041,5.641 -2.218,14.383 2.082,19.365 4.345,5.063 10.625,4.053 13.782,-2.072 3.148,-6.125 1.924,-14.654 -2.531,-19.23 m -28.669,54.265 c -4.088,-5.807 -9.614,-6.104 -12.634,-0.521 -3.017,5.589 -2.527,15.408 1.378,21.826 3.968,6.527 10.01,6.666 13.207,0.468 3.177,-6.183 2.176,-15.848 -1.951,-21.773 m 14.332,-27.126 c -4.265,-5.124 -9.983,-4.84 -13.015,0.767 -3.033,5.62 -2.348,14.855 1.764,20.531 4.195,5.739 10.355,5.285 13.537,-0.88 3.159,-6.149 2.029,-15.212 -2.286,-20.418 m 11.897,-144.754 c -3.911,-3.573 -9.254,-2.571 -12.026,2.284 -2.742,4.828 -2.017,11.926 1.723,15.806 3.764,3.903 9.26,2.834 12.172,-2.296 2.926,-5.163 2.052,-12.193 -1.869,-15.794 m -61.745,108.395 c -2.616,-5.923 -6.488,-7.421 -8.834,-3.305 -2.328,4.096 -2.452,12.594 -0.088,18.971 2.391,6.451 6.573,7.958 9.16,3.408 2.588,-4.563 2.393,-13.075 -0.238,-19.074 m 11.647,-20.448 c -2.918,-5.381 -7.1,-6.342 -9.52,-2.096 -2.41,4.227 -2.32,12.386 0.349,18.198 2.715,5.869 7.186,6.808 9.832,2.149 2.647,-4.674 2.275,-12.806 -0.661,-18.251 m 24.322,-42.691 c -3.466,-4.389 -8.251,-4.335 -10.839,0.204 -2.57,4.511 -2.122,12.07 1.129,16.844 3.279,4.811 8.301,4.683 11.078,-0.206 2.779,-4.91 2.104,-12.397 -1.368,-16.842 m 39.248,-68.907 c -4.096,-3.234 -9.688,-1.811 -12.556,3.216 -2.841,4.995 -2.008,11.917 1.945,15.416 3.964,3.516 9.661,2.04 12.653,-3.222 2.997,-5.294 2.064,-12.158 -2.042,-15.41 m -51.583,90.558 c -3.199,-4.871 -7.692,-5.307 -10.197,-0.918 -2.479,4.362 -2.202,12.203 0.758,17.482 3.01,5.323 7.766,5.708 10.475,0.949 2.713,-4.797 2.182,-12.594 -1.036,-17.513 m 79.806,-140.1 c -4.373,-2.725 -10.404,-0.558 -13.487,4.846 -3.051,5.358 -2.075,12.067 2.201,14.966 4.275,2.9 10.301,0.733 13.443,-4.795 3.162,-5.579 2.198,-12.285 -2.157,-15.017 m -14.33,25.155 c -4.249,-2.949 -10.073,-1.136 -13.043,4.074 -2.947,5.173 -2.026,11.959 2.1,15.135 4.142,3.174 10.012,1.336 13.081,-4.06 3.076,-5.429 2.107,-12.19 -2.138,-15.149 m -40.444,71.003 c -3.7,-3.962 -8.774,-3.419 -11.449,1.273 -2.655,4.662 -2.063,11.978 1.449,16.283 3.539,4.333 8.803,3.718 11.645,-1.287 2.855,-5.034 2.071,-12.273 -1.645,-16.269 m 7.163,45.446 c -3.944,-4.207 -9.346,-3.573 -12.219,1.518 -2.856,5.076 -2.228,12.993 1.562,17.597 3.832,4.654 9.525,3.901 12.537,-1.572 3.01,-5.489 2.094,-13.288 -1.88,-17.543 m 27.737,-49.754 c -4.231,-3.362 -10.005,-1.865 -12.991,3.433 -2.977,5.284 -2.126,12.609 2,16.283 4.167,3.696 10.125,2.086 13.2,-3.502 3.072,-5.604 2.037,-12.815 -2.209,-16.214 m 14.191,-25.452 c -4.316,-3.045 -10.238,-1.18 -13.29,4.226 -3.031,5.392 -2.118,12.496 2.128,15.793 4.275,3.315 10.328,1.352 13.436,-4.294 3.103,-5.657 2.058,-12.667 -2.274,-15.725 m -28.165,50.52 c -4.105,-3.755 -9.706,-2.667 -12.639,2.526 -2.909,5.176 -2.156,12.772 1.819,16.884 4.018,4.138 9.853,2.938 12.898,-2.59 3.039,-5.548 2.057,-13.036 -2.078,-16.82 m -27.318,48.997 c -3.75,-4.716 -8.928,-4.574 -11.745,0.418 -2.793,4.971 -2.326,13.255 1.249,18.412 3.624,5.211 9.131,4.966 12.112,-0.445 2.98,-5.438 2.173,-13.612 -1.616,-18.385 m -26.502,47.532 c -3.269,-5.888 -7.932,-6.842 -10.642,-2.047 -2.69,4.787 -2.591,13.915 0.452,20.329 3.094,6.507 8.159,7.416 11.09,2.107 2.912,-5.32 2.416,-14.408 -0.9,-20.389 m 96.397,-172.904 c -4.366,-2.787 -10.4,-0.61 -13.521,4.914 -3.095,5.505 -2.138,12.427 2.186,15.419 4.345,2.991 10.454,0.747 13.596,-4.958 3.138,-5.717 2.109,-12.574 -2.261,-15.375 m -83.243,149.32 c -3.523,-5.28 -8.459,-5.668 -11.218,-0.779 -2.748,4.882 -2.444,13.562 0.879,19.329 3.368,5.834 8.673,6.144 11.627,0.776 2.945,-5.374 2.274,-13.979 -1.288,-19.326 M 612,314.031 c -3.082,0.545 -6.432,3.179 -8.74,7.27 -3.527,6.262 -3.113,13.438 0.788,16.143 2.285,1.577 5.232,1.268 7.952,-0.514 l 0,-22.899 z m -11.34,29.484 c -3.95,-2.652 -10.058,0.248 -13.523,6.394 -3.448,6.124 -2.849,13.083 1.248,15.629 4.051,2.512 9.942,-0.28 13.251,-6.296 3.306,-6.024 2.921,-13.096 -0.976,-15.727 m -60.96,109.35 c -4.376,-2.605 -10.495,-0.161 -13.679,5.489 -3.161,5.611 -2.205,12.416 2.164,15.165 4.372,2.748 10.511,0.267 13.679,-5.492 3.175,-5.784 2.199,-12.553 -2.164,-15.162 m 45.349,-81.35 c -4.132,-2.511 -10.295,0.372 -13.688,6.381 -3.375,5.998 -2.623,12.809 1.612,15.284 4.201,2.45 10.208,-0.353 13.484,-6.306 3.27,-5.964 2.676,-12.857 -1.408,-15.359 m -30.472,54.663 c -4.341,-2.49 -10.512,0.159 -13.76,5.918 -3.235,5.745 -2.308,12.491 2.057,15.073 4.359,2.57 10.493,-0.086 13.7,-5.913 3.206,-5.841 2.316,-12.586 -1.997,-15.078 m 15.11,-27.106 c -4.257,-2.465 -10.443,0.334 -13.765,6.219 -3.3,5.864 -2.442,12.614 1.881,15.102 4.306,2.464 10.392,-0.295 13.632,-6.183 3.24,-5.9 2.477,-12.688 -1.748,-15.138 m 3.547,179.881 c -5.315,-2.595 -11.893,0.464 -14.804,7.006 -2.938,6.584 -0.961,14.372 4.549,17.206 5.563,2.857 12.403,-0.528 15.137,-7.359 2.704,-6.769 0.471,-14.229 -4.882,-16.853 m -55.105,130.102 c -6.079,-4.538 -13.418,-2.514 -16.665,4.774 -3.271,7.351 -1.194,17.701 4.953,22.871 6.284,5.237 14.233,2.778 17.433,-5.221 3.165,-7.91 0.457,-17.808 -5.721,-22.424 m -14.972,35.342 c -6.175,-5.339 -13.606,-3.82 -16.953,3.683 -3.365,7.561 -1.374,18.844 4.827,24.948 6.343,6.204 14.5,4.243 17.833,-4.092 3.299,-8.248 0.573,-19.077 -5.707,-24.539 m 29.441,-69.509 c -5.952,-3.854 -13.141,-1.446 -16.304,5.649 -3.177,7.139 -1.069,16.692 4.985,21.072 6.164,4.442 13.877,1.589 16.95,-6.079 3.041,-7.605 0.406,-16.711 -5.631,-20.642 m 21.242,57.381 c -7.172,-4.022 -15.212,-0.944 -18.303,7.268 -3.119,8.311 0.05,19.14 7.451,23.829 7.542,4.761 16.276,1.009 19.156,-7.97 2.821,-8.841 -1.031,-19.011 -8.304,-23.127 M 612,560.699 c -4.878,-0.976 -10.151,2.426 -12.389,8.371 -2.495,6.64 -0.076,13.988 5.505,16.242 2.28,0.913 4.686,0.827 6.884,-0.048 l 0,-24.565 z m -9.246,31.378 c -5.673,-2.285 -12.272,1.278 -14.854,8.148 -2.606,6.937 0.025,14.725 6.009,17.2 6.052,2.468 12.895,-1.493 15.183,-8.621 2.25,-7.043 -0.623,-14.435 -6.338,-16.727 M 612,536.771 c -0.446,0.751 -0.838,1.564 -1.166,2.434 -1.672,4.462 -1.102,9.232 1.166,12.421 l 0,-14.855 z m -32.466,121.855 c -6.465,-2.879 -13.813,0.623 -16.635,8.118 -2.846,7.577 0.118,16.611 6.869,19.88 6.833,3.316 14.637,-0.752 17.196,-8.723 2.518,-7.867 -0.9,-16.345 -7.43,-19.275 m -12.513,35.862 c -6.832,-3.376 -14.541,-0.03 -17.488,7.819 -2.976,7.921 0.114,17.765 7.197,21.669 7.217,3.93 15.483,-0.023 18.188,-8.463 2.671,-8.343 -0.98,-17.582 -7.897,-21.025 m 24.412,-69.958 c -6.079,-2.524 -13.06,1.054 -15.757,8.225 -2.719,7.242 0.085,15.594 6.467,18.397 6.451,2.823 13.781,-1.23 16.195,-8.76 2.384,-7.437 -0.775,-15.312 -6.905,-17.862 M 549.548,792 c 0.272,-7.877 -3.521,-15.917 -9.612,-19.89 -7.473,-4.863 -15.829,-2.153 -19.07,6.463 -1.536,4.087 -1.644,8.891 -0.539,13.427 l 29.221,0 z m -76.61,-77.361 c -5.053,-5.635 -11.516,-5.113 -14.762,1.374 -3.254,6.513 -2.15,17.049 2.79,23.383 5.059,6.424 12.133,5.637 15.49,-1.567 3.323,-7.166 1.599,-17.434 -3.518,-23.19 m 44.335,-91.712 c -5.117,-3.688 -11.659,-1.721 -14.808,4.565 -3.159,6.305 -1.728,14.904 3.414,19.009 5.202,4.164 12.14,1.903 15.279,-4.838 3.114,-6.706 1.291,-15 -3.885,-18.736 m -14.542,30.082 c -5.137,-4.24 -11.696,-2.672 -14.877,3.684 -3.184,6.362 -1.827,15.528 3.299,20.268 5.199,4.813 12.226,2.935 15.432,-3.946 3.185,-6.855 1.353,-15.711 -3.854,-20.006 m -14.779,30.57 c -5.118,-4.884 -11.642,-3.802 -14.858,2.61 -3.222,6.449 -1.977,16.266 3.089,21.735 5.143,5.572 12.225,4.182 15.506,-2.865 3.25,-7.007 1.456,-16.517 -3.737,-21.48 m 85.231,-176.297 c -4.618,-2.451 -10.761,0.381 -13.784,6.415 -3.021,6.048 -1.674,13.122 3.084,15.714 4.781,2.591 11.047,-0.419 13.926,-6.604 2.86,-6.16 1.395,-13.062 -3.226,-15.525 m 13.441,-27.803 c -4.396,-2.361 -10.36,0.521 -13.355,6.495 -2.991,5.983 -1.748,12.86 2.822,15.298 4.577,2.419 10.599,-0.587 13.414,-6.641 2.806,-6.038 1.502,-12.785 -2.881,-15.152 m 13.239,-27.376 c -4.148,-2.352 -9.898,0.507 -12.858,6.418 -2.964,5.932 -1.862,12.682 2.479,15.046 4.333,2.347 10.095,-0.609 12.862,-6.55 2.741,-5.912 1.634,-12.566 -2.483,-14.914 M 612,424.687 c -3.771,-1.525 -8.692,1.259 -11.404,6.673 -2.934,5.869 -1.995,12.551 2.083,14.915 2.895,1.674 6.507,0.716 9.321,-2.081 l 0,-19.507 z m -65.411,217.172 c -5.774,-3.326 -12.786,-0.612 -15.865,6.289 -3.091,6.95 -0.987,15.798 4.922,19.549 6.01,3.772 13.449,0.662 16.401,-6.712 2.922,-7.313 0.388,-15.754 -5.458,-19.126 m -0.917,-77.671 c -4.95,-2.881 -11.365,-0.345 -14.444,5.816 -3.092,6.178 -1.625,13.859 3.402,17.024 5.074,3.183 11.739,0.396 14.742,-6.058 2.981,-6.428 1.276,-13.865 -3.7,-16.782 m -14.088,29.141 c -5.052,-3.238 -11.548,-0.954 -14.667,5.27 -3.111,6.239 -1.654,14.339 3.452,17.928 5.164,3.625 11.985,1.057 15.049,-5.538 3.049,-6.563 1.261,-14.382 -3.834,-17.66 m 27.95,-57.814 c -4.805,-2.619 -11.096,0.096 -14.146,6.187 -3.057,6.114 -1.63,13.454 3.28,16.29 4.951,2.837 11.424,-0.095 14.367,-6.411 2.918,-6.289 1.314,-13.417 -3.501,-16.066 M 612,493.166 c -0.546,-0.549 -1.164,-1.008 -1.852,-1.359 -4.399,-2.236 -10.126,0.789 -12.829,6.846 -2.703,6.076 -1.16,12.923 3.501,15.183 3.78,1.83 8.299,0.075 11.18,-3.902 l 0,-16.768 z m -13.776,26.793 c -4.73,-2.271 -10.762,0.831 -13.528,7.036 -2.782,6.246 -1.065,13.321 3.906,15.685 4.99,2.366 11.148,-0.968 13.688,-7.299 2.514,-6.29 0.669,-13.137 -4.066,-15.422 M 612,467.258 c -0.913,1.05 -1.721,2.31 -2.363,3.75 -2.501,5.622 -1.424,11.909 2.363,14.473 l 0,-18.223 z m -51.871,142.638 c -5.566,-2.901 -12.364,0.024 -15.368,6.739 -3.004,6.765 -0.951,15.035 4.779,18.265 5.8,3.259 12.951,-0.039 15.79,-7.127 2.813,-7.034 0.41,-14.934 -5.201,-17.877 M 531.113,412.634 c -4.453,-2.576 -10.669,-0.097 -13.865,5.504 -3.169,5.568 -2.174,12.247 2.214,14.945 4.379,2.682 10.528,0.24 13.762,-5.452 3.241,-5.717 2.311,-12.431 -2.111,-14.997 m 54.813,136.364 c -5.038,-2.389 -11.349,0.724 -14.191,7.091 -2.85,6.415 -0.993,13.8 4.261,16.348 5.29,2.569 11.799,-0.831 14.433,-7.409 2.603,-6.519 0.552,-13.623 -4.503,-16.03"
                 style="fill:#205da9;fill-opacity:1;fill-rule:nonzero;stroke:none"
                 id="path20382" /></g></g></g><text
           transform="matrix(1,0,0,-1,1.4956,809.9668)"
           id="text20384"><tspan
             style="fill:#ee3338;fill-opacity:1;fill-rule:nonzero;stroke:none;font-family:Arial Rounded MT Bold;font-variant:normal;font-weight:normal;font-stretch:normal;font-size:18.1843;writing-mode:lr;-inkscape-font-specification:ArialRoundedMTBold"
             x="0"
             y="0"
             id="tspan20386">T</tspan></text>
<text
           transform="matrix(1,0,0,-1,12.6211,809.9668)"
           id="text20388"><tspan
             style="fill:#ee3338;fill-opacity:1;fill-rule:nonzero;stroke:none;font-family:Arial Rounded MT Bold;font-variant:normal;font-weight:normal;font-stretch:normal;font-size:18.1843;writing-mode:lr;-inkscape-font-specification:ArialRoundedMTBold"
             x="0 10.9833172 15.9112625 25.7671531 30.3132281 35.2411734"
             y="0"
             sodipodi:role="line"
             id="tspan20390">his im</tspan></text>
<text
           transform="matrix(1,0,0,-1,63.9507,809.9668)"
           id="text20392"><tspan
             style="fill:#ee3338;fill-opacity:1;fill-rule:nonzero;stroke:none;font-family:Arial Rounded MT Bold;font-variant:normal;font-weight:normal;font-stretch:normal;font-size:18.1843;writing-mode:lr;-inkscape-font-specification:ArialRoundedMTBold"
             x="0"
             y="0"
             id="tspan20394">a</tspan></text>
<text
           transform="matrix(1,0,0,-1,74.5171,809.9668)"
           id="text20396"><tspan
             style="fill:#ee3338;fill-opacity:1;fill-rule:nonzero;stroke:none;font-family:Arial Rounded MT Bold;font-variant:normal;font-weight:normal;font-stretch:normal;font-size:18.1843;writing-mode:lr;-inkscape-font-specification:ArialRoundedMTBold"
             x="0"
             y="0"
             id="tspan20398">g</tspan></text>
<text
           transform="matrix(1,0,0,-1,85.4292,809.9668)"
           id="text20400"><tspan
             style="fill:#ee3338;fill-opacity:1;fill-rule:nonzero;stroke:none;font-family:Arial Rounded MT Bold;font-variant:normal;font-weight:normal;font-stretch:normal;font-size:18.1843;writing-mode:lr;-inkscape-font-specification:ArialRoundedMTBold"
             x="0 10.8014742 15.3475492 20.2754945 30.1313851"
             y="0"
             sodipodi:role="line"
             id="tspan20402">e is </tspan></text>
<text
           transform="matrix(1,0,0,-1,120.1108,809.9668)"
           id="text20404"><tspan
             style="fill:#ee3338;fill-opacity:1;fill-rule:nonzero;stroke:none;font-family:Arial Rounded MT Bold;font-variant:normal;font-weight:normal;font-stretch:normal;font-size:18.1843;writing-mode:lr;-inkscape-font-specification:ArialRoundedMTBold"
             x="0"
             y="0"
             id="tspan20406">r</tspan></text>
<text
           transform="matrix(1,0,0,-1,127.6226,809.9668)"
           id="text20408"><tspan
             style="fill:#ee3338;fill-opacity:1;fill-rule:nonzero;stroke:none;font-family:Arial Rounded MT Bold;font-variant:normal;font-weight:normal;font-stretch:normal;font-size:18.1843;writing-mode:lr;-inkscape-font-specification:ArialRoundedMTBold"
             x="0 10.8014742 15.7294195 26.5308937 37.3323679 47.1882585 57.9897327 69.3549202 73.9009952 78.8289405 89.8122577 96.2494999 107.2328171 111.7788921 123.1440796"
             y="0"
             sodipodi:role="line"
             id="tspan20410">eleased into pu</tspan></text>
<text
           transform="matrix(1,0,0,-1,261.7671,809.9668)"
           id="text20412"><tspan
             style="fill:#ee3338;fill-opacity:1;fill-rule:nonzero;stroke:none;font-family:Arial Rounded MT Bold;font-variant:normal;font-weight:normal;font-stretch:normal;font-size:18.1843;writing-mode:lr;-inkscape-font-specification:ArialRoundedMTBold"
             x="0"
             y="0"
             id="tspan20414">b</tspan></text>
<text
           transform="matrix(1,0,0,-1,272.8926,809.9668)"
           id="text20416"><tspan
             style="fill:#ee3338;fill-opacity:1;fill-rule:nonzero;stroke:none;font-family:Arial Rounded MT Bold;font-variant:normal;font-weight:normal;font-stretch:normal;font-size:18.1843;writing-mode:lr;-inkscape-font-specification:ArialRoundedMTBold"
             x="0 4.9279453 9.8558906 20.6573648 25.2034398 36.5686273 47.5519445 63.64505 74.4465242 79.3744695 90.3577867"
             y="0"
             sodipodi:role="line"
             id="tspan20418">lic domain </tspan></text>
<text
           transform="matrix(1,0,0,-1,367.8008,809.9668)"
           id="text20420"><tspan
             style="fill:#ee3338;fill-opacity:1;fill-rule:nonzero;stroke:none;font-family:Arial Rounded MT Bold;font-variant:normal;font-weight:normal;font-stretch:normal;font-size:18.1843;writing-mode:lr;-inkscape-font-specification:ArialRoundedMTBold"
             x="0"
             y="0"
             id="tspan20422">b</tspan></text>
<text
           transform="matrix(1,0,0,-1,378.9258,809.9668)"
           id="text20424"><tspan
             style="fill:#ee3338;fill-opacity:1;fill-rule:nonzero;stroke:none;font-family:Arial Rounded MT Bold;font-variant:normal;font-weight:normal;font-stretch:normal;font-size:18.1843;writing-mode:lr;-inkscape-font-specification:ArialRoundedMTBold"
             x="0 9.8558906 14.4019656 26.5308937"
             y="0"
             sodipodi:role="line"
             id="tspan20426">y Pu</tspan></text>
<text
           transform="matrix(1,0,0,-1,416.4404,809.9668)"
           id="text20428"><tspan
             style="fill:#ee3338;fill-opacity:1;fill-rule:nonzero;stroke:none;font-family:Arial Rounded MT Bold;font-variant:normal;font-weight:normal;font-stretch:normal;font-size:18.1843;writing-mode:lr;-inkscape-font-specification:ArialRoundedMTBold"
             x="0"
             y="0"
             id="tspan20430">b</tspan></text>
<text
           transform="matrix(1,0,0,-1,427.5654,809.9668)"
           id="text20432"><tspan
             style="fill:#ee3338;fill-opacity:1;fill-rule:nonzero;stroke:none;font-family:Arial Rounded MT Bold;font-variant:normal;font-weight:normal;font-stretch:normal;font-size:18.1843;writing-mode:lr;-inkscape-font-specification:ArialRoundedMTBold"
             x="0 4.9279453 9.8558906 20.6573648 32.0225523 43.0058695 59.098975 69.9004492"
             y="0"
             sodipodi:role="line"
             id="tspan20434">licdomai</tspan></text>
<text
           transform="matrix(1,0,0,-1,502.3984,809.9668)"
           id="text20436"><tspan
             style="fill:#ee3338;fill-opacity:1;fill-rule:nonzero;stroke:none;font-family:Arial Rounded MT Bold;font-variant:normal;font-weight:normal;font-stretch:normal;font-size:18.1843;writing-mode:lr;-inkscape-font-specification:ArialRoundedMTBold"
             x="0 10.7469213"
             y="0"
             sodipodi:role="line"
             id="tspan20438">nv</tspan></text>
<text
           transform="matrix(1,0,0,-1,522.7578,809.9668)"
           id="text20440"><tspan
             style="fill:#ee3338;fill-opacity:1;fill-rule:nonzero;stroke:none;font-family:Arial Rounded MT Bold;font-variant:normal;font-weight:normal;font-stretch:normal;font-size:18.1843;writing-mode:lr;-inkscape-font-specification:ArialRoundedMTBold"
             x="0 10.8014742 21.6029484 28.0401906"
             y="0"
             sodipodi:role="line"
             id="tspan20442">ecto</tspan></text>
<text
           transform="matrix(1,0,0,-1,561.79,809.9668)"
           id="text20444"><tspan
             style="fill:#ee3338;fill-opacity:1;fill-rule:nonzero;stroke:none;font-family:Arial Rounded MT Bold;font-variant:normal;font-weight:normal;font-stretch:normal;font-size:18.1843;writing-mode:lr;-inkscape-font-specification:ArialRoundedMTBold"
             x="0"
             y="0"
             id="tspan20446">r</tspan></text>
<text
           transform="matrix(1,0,0,-1,569.3018,809.9668)"
           id="text20448"><tspan
             style="fill:#ee3338;fill-opacity:1;fill-rule:nonzero;stroke:none;font-family:Arial Rounded MT Bold;font-variant:normal;font-weight:normal;font-stretch:normal;font-size:18.1843;writing-mode:lr;-inkscape-font-specification:ArialRoundedMTBold"
             x="0"
             y="0"
             id="tspan20450">s</tspan></text>
<text
           transform="matrix(1,0,0,-1,578.252,809.9668)"
           id="text20452"><tspan
             style="fill:#ee3338;fill-opacity:1;fill-rule:nonzero;stroke:none;font-family:Arial Rounded MT Bold;font-variant:normal;font-weight:normal;font-stretch:normal;font-size:18.1843;writing-mode:lr;-inkscape-font-specification:ArialRoundedMTBold"
             x="0 5.6916859"
             y="0"
             sodipodi:role="line"
             id="tspan20454">.o</tspan></text>
<text
           transform="matrix(1,0,0,-1,594.9268,809.9668)"
           id="text20456"><tspan
             style="fill:#ee3338;fill-opacity:1;fill-rule:nonzero;stroke:none;font-family:Arial Rounded MT Bold;font-variant:normal;font-weight:normal;font-stretch:normal;font-size:18.1843;writing-mode:lr;-inkscape-font-specification:ArialRoundedMTBold"
             x="0"
             y="0"
             id="tspan20458">r</tspan></text>
<text
           transform="matrix(1,0,0,-1,602.4385,809.9668)"
           id="text20460"><tspan
             style="fill:#ee3338;fill-opacity:1;fill-rule:nonzero;stroke:none;font-family:Arial Rounded MT Bold;font-variant:normal;font-weight:normal;font-stretch:normal;font-size:18.1843;writing-mode:lr;-inkscape-font-specification:ArialRoundedMTBold"
             x="0"
             y="0"
             id="tspan20462">g</tspan></text>
<text
           transform="matrix(1,0,0,-1,0.1084,797.2534)"
           id="text20464"><tspan
             style="fill:#373535;fill-opacity:1;fill-rule:nonzero;stroke:none;font-family:Arial Rounded MT Bold;font-variant:normal;font-weight:normal;font-stretch:normal;font-size:11.3662;writing-mode:lr;-inkscape-font-specification:ArialRoundedMTBold"
             x="0"
             y="0"
             id="tspan20466">Y</tspan></text>
<text
           transform="matrix(1,0,0,-1,6.4961,797.2534)"
           id="text20468"><tspan
             style="fill:#373535;fill-opacity:1;fill-rule:nonzero;stroke:none;font-family:Arial Rounded MT Bold;font-variant:normal;font-weight:normal;font-stretch:normal;font-size:11.3662;writing-mode:lr;-inkscape-font-specification:ArialRoundedMTBold"
             x="0 6.8651848 13.7303696 16.5719196 23.3234424 30.0749652 36.94015 39.7817 46.5332228"
             y="0"
             sodipodi:role="line"
             id="tspan20470">ou can co</tspan></text>
<text
           transform="matrix(1,0,0,-1,59.9028,797.2534)"
           id="text20472"><tspan
             style="fill:#373535;fill-opacity:1;fill-rule:nonzero;stroke:none;font-family:Arial Rounded MT Bold;font-variant:normal;font-weight:normal;font-stretch:normal;font-size:11.3662;writing-mode:lr;-inkscape-font-specification:ArialRoundedMTBold"
             x="0"
             y="0"
             id="tspan20474">p</tspan></text>
<text
           transform="matrix(1,0,0,-1,66.8569,797.2534)"
           id="text20476"><tspan
             style="fill:#373535;fill-opacity:1;fill-rule:nonzero;stroke:none;font-family:Arial Rounded MT Bold;font-variant:normal;font-weight:normal;font-stretch:normal;font-size:11.3662;writing-mode:lr;-inkscape-font-specification:ArialRoundedMTBold"
             x="0"
             y="0"
             id="tspan20478">y</tspan></text>
<text
           transform="matrix(1,0,0,-1,72.1626,797.2534)"
           id="text20480"><tspan
             style="fill:#373535;fill-opacity:1;fill-rule:nonzero;stroke:none;font-family:Arial Rounded MT Bold;font-variant:normal;font-weight:normal;font-stretch:normal;font-size:11.3662;writing-mode:lr;-inkscape-font-specification:ArialRoundedMTBold"
             x="0 3.5576206 6.3991706 16.4582576 23.3234424 30.4273174 33.5075576"
             y="0"
             sodipodi:role="line"
             id="tspan20482">, modif</tspan></text>
<text
           transform="matrix(1,0,0,-1,109.4526,797.2534)"
           id="text20484"><tspan
             style="fill:#373535;fill-opacity:1;fill-rule:nonzero;stroke:none;font-family:Arial Rounded MT Bold;font-variant:normal;font-weight:normal;font-stretch:normal;font-size:11.3662;writing-mode:lr;-inkscape-font-specification:ArialRoundedMTBold"
             x="0"
             y="0"
             id="tspan20486">y</tspan></text>
<text
           transform="matrix(1,0,0,-1,114.7583,797.2534)"
           id="text20488"><tspan
             style="fill:#373535;fill-opacity:1;fill-rule:nonzero;stroke:none;font-family:Arial Rounded MT Bold;font-variant:normal;font-weight:normal;font-stretch:normal;font-size:11.3662;writing-mode:lr;-inkscape-font-specification:ArialRoundedMTBold"
             x="0 3.5576206 6.3991706 13.5030456 16.5832858 22.7437662 26.767401 31.7457966"
             y="0"
             sodipodi:role="line"
             id="tspan20490">, distri</tspan></text>
<text
           transform="matrix(1,0,0,-1,149.584,797.2534)"
           id="text20492"><tspan
             style="fill:#373535;fill-opacity:1;fill-rule:nonzero;stroke:none;font-family:Arial Rounded MT Bold;font-variant:normal;font-weight:normal;font-stretch:normal;font-size:11.3662;writing-mode:lr;-inkscape-font-specification:ArialRoundedMTBold"
             x="0"
             y="0"
             id="tspan20494">b</tspan></text>
<text
           transform="matrix(1,0,0,-1,156.5381,797.2534)"
           id="text20496"><tspan
             style="fill:#373535;fill-opacity:1;fill-rule:nonzero;stroke:none;font-family:Arial Rounded MT Bold;font-variant:normal;font-weight:normal;font-stretch:normal;font-size:11.3662;writing-mode:lr;-inkscape-font-specification:ArialRoundedMTBold"
             x="0 6.8651848 10.8888196 17.6403424 20.4818924 27.2334152 34.0986 41.202475 44.044025 50.9092098 57.0696902 63.821213 66.662763 70.6863978 77.5515826 84.3031054 87.1446554 90.2248956"
             y="0"
             sodipodi:role="line"
             id="tspan20498">ute and use the im</tspan></text>
<text
           transform="matrix(1,0,0,-1,256.8301,797.2534)"
           id="text20500"><tspan
             style="fill:#373535;fill-opacity:1;fill-rule:nonzero;stroke:none;font-family:Arial Rounded MT Bold;font-variant:normal;font-weight:normal;font-stretch:normal;font-size:11.3662;writing-mode:lr;-inkscape-font-specification:ArialRoundedMTBold"
             x="0"
             y="0"
             id="tspan20502">a</tspan></text>
<text
           transform="matrix(1,0,0,-1,263.4346,797.2534)"
           id="text20504"><tspan
             style="fill:#373535;fill-opacity:1;fill-rule:nonzero;stroke:none;font-family:Arial Rounded MT Bold;font-variant:normal;font-weight:normal;font-stretch:normal;font-size:11.3662;writing-mode:lr;-inkscape-font-specification:ArialRoundedMTBold"
             x="0"
             y="0"
             id="tspan20506">g</tspan></text>
<text
           transform="matrix(1,0,0,-1,270.2554,797.2534)"
           id="text20508"><tspan
             style="fill:#373535;fill-opacity:1;fill-rule:nonzero;stroke:none;font-family:Arial Rounded MT Bold;font-variant:normal;font-weight:normal;font-stretch:normal;font-size:11.3662;writing-mode:lr;-inkscape-font-specification:ArialRoundedMTBold"
             x="0 6.7515228"
             y="0"
             sodipodi:role="line"
             id="tspan20510">e </tspan></text>
<text
           transform="matrix(1,0,0,-1,279.8511,797.2534)"
           id="text20512"><tspan
             style="fill:#373535;fill-opacity:1;fill-rule:nonzero;stroke:none;font-family:Arial Rounded MT Bold;font-variant:normal;font-weight:normal;font-stretch:normal;font-size:11.3662;writing-mode:lr;-inkscape-font-specification:ArialRoundedMTBold"
             x="0"
             y="0"
             id="tspan20514">f</tspan></text>
<text
           transform="matrix(1,0,0,-1,283.4863,797.2534)"
           id="text20516"><tspan
             style="fill:#373535;fill-opacity:1;fill-rule:nonzero;stroke:none;font-family:Arial Rounded MT Bold;font-variant:normal;font-weight:normal;font-stretch:normal;font-size:11.3662;writing-mode:lr;-inkscape-font-specification:ArialRoundedMTBold"
             x="0 6.8651848 11.8435804 14.6851304 21.5503152 28.4155 31.4957402 34.5759804 44.6350674 47.7153076 51.7389424 58.4904652 65.5943402 68.4358902 75.187413 82.0525978 92.1116848 102.1707718"
             y="0"
             sodipodi:role="line"
             id="tspan20518">or unlimited comme</tspan></text>
<text
           transform="matrix(1,0,0,-1,392.4082,797.2534)"
           id="text20520"><tspan
             style="fill:#373535;fill-opacity:1;fill-rule:nonzero;stroke:none;font-family:Arial Rounded MT Bold;font-variant:normal;font-weight:normal;font-stretch:normal;font-size:11.3662;writing-mode:lr;-inkscape-font-specification:ArialRoundedMTBold"
             x="0"
             y="0"
             id="tspan20522">r</tspan></text>
<text
           transform="matrix(1,0,0,-1,397.0928,797.2534)"
           id="text20524"><tspan
             style="fill:#373535;fill-opacity:1;fill-rule:nonzero;stroke:none;font-family:Arial Rounded MT Bold;font-variant:normal;font-weight:normal;font-stretch:normal;font-size:11.3662;writing-mode:lr;-inkscape-font-specification:ArialRoundedMTBold"
             x="0 6.7515228 9.831763 16.5832858 19.663526 22.505076 29.608951"
             y="0"
             sodipodi:role="line"
             id="tspan20526">cial pu</tspan></text>
<text
           transform="matrix(1,0,0,-1,433.5723,797.2534)"
           id="text20528"><tspan
             style="fill:#373535;fill-opacity:1;fill-rule:nonzero;stroke:none;font-family:Arial Rounded MT Bold;font-variant:normal;font-weight:normal;font-stretch:normal;font-size:11.3662;writing-mode:lr;-inkscape-font-specification:ArialRoundedMTBold"
             x="0"
             y="0"
             id="tspan20530">r</tspan></text>
<text
           transform="matrix(1,0,0,-1,438.4004,797.2534)"
           id="text20532"><tspan
             style="fill:#373535;fill-opacity:1;fill-rule:nonzero;stroke:none;font-family:Arial Rounded MT Bold;font-variant:normal;font-weight:normal;font-stretch:normal;font-size:11.3662;writing-mode:lr;-inkscape-font-specification:ArialRoundedMTBold"
             x="0 7.103875 13.9690598 20.1295402 26.881063 29.722613 38.9633336 42.0435738 46.0672086 52.9323934 59.7975782 66.662763 70.6863978 73.5279478 80.2794706"
             y="0"
             sodipodi:role="line"
             id="tspan20534">pose without as</tspan></text>
<text
           transform="matrix(1,0,0,-1,524.8457,797.2534)"
           id="text20536"><tspan
             style="fill:#373535;fill-opacity:1;fill-rule:nonzero;stroke:none;font-family:Arial Rounded MT Bold;font-variant:normal;font-weight:normal;font-stretch:normal;font-size:11.3662;writing-mode:lr;-inkscape-font-specification:ArialRoundedMTBold"
             x="0"
             y="0"
             id="tspan20538">k</tspan></text>
<text
           transform="matrix(1,0,0,-1,531.0781,797.2534)"
           id="text20540"><tspan
             style="fill:#373535;fill-opacity:1;fill-rule:nonzero;stroke:none;font-family:Arial Rounded MT Bold;font-variant:normal;font-weight:normal;font-stretch:normal;font-size:11.3662;writing-mode:lr;-inkscape-font-specification:ArialRoundedMTBold"
             x="0 3.0802402 9.945425 17.0493 19.89085 26.994725 33.7462478 38.7246434 48.7837304 51.8639706 58.024451 64.1849314 67.2651716 74.1303564"
             y="0"
             sodipodi:role="line"
             id="tspan20542">ing permission</tspan></text>
</g></g></g></svg>